ffmpeg version 3.4.8-0ubuntu0.2 Copyright (c) 2000-2020 the FFmpeg developers
  built with gcc 7 (Ubuntu 7.5.0-3ubuntu1~18.04)
  configuration: --prefix=/usr --extra-version=0ubuntu0.2 --toolchain=hardened --libdir=/usr/lib/x86_64-linux-gnu --incdir=/usr/include/x86_64-linux-gnu --enable-gpl --disable-stripping --enable-avresample --enable-avisynth --enable-gnutls --enable-ladspa --enable-libass --enable-libbluray --enable-libbs2b --enable-libcaca --enable-libcdio --enable-libflite --enable-libfontconfig --enable-libfreetype --enable-libfribidi --enable-libgme --enable-libgsm --enable-libmp3lame --enable-libmysofa --enable-libopenjpeg --enable-libopenmpt --enable-libopus --enable-libpulse --enable-librubberband --enable-librsvg --enable-libshine --enable-libsnappy --enable-libsoxr --enable-libspeex --enable-libssh --enable-libtheora --enable-libtwolame --enable-libvorbis --enable-libvpx --enable-libwavpack --enable-libwebp --enable-libx265 --enable-libxml2 --enable-libxvid --enable-libzmq --enable-libzvbi --enable-omx --enable-openal --enable-opengl --enable-sdl2 --enable-libdc1394 --enable-libdrm --enable-libiec61883 --enable-chromaprint --enable-frei0r --enable-libopencv --enable-libx264 --enable-shared
  libavutil      55. 78.100 / 55. 78.100
  libavcodec     57.107.100 / 57.107.100
  libavformat    57. 83.100 / 57. 83.100
  libavdevice    57. 10.100 / 57. 10.100
  libavfilter     6.107.100 /  6.107.100
  libavresample   3.  7.  0 /  3.  7.  0
  libswscale      4.  8.100 /  4.  8.100
  libswresample   2.  9.100 /  2.  9.100
  libpostproc    54.  7.100 / 54.  7.100
[rawvideo @ 0x55955fae5a20] Estimating duration from bitrate, this may be inaccurate
Input #0, rawvideo, from '../../SVC-Encoder-20220109T061506Z-001/SVC-Encoder/Dataset/RollerCoaster/ERP_8x8/tile_yuv/Tile_41_480x240.yuv':
  Duration: 00:00:10.00, start: 0.000000, bitrate: 41472 kb/s
    Stream #0:0: Video: rawvideo (I420 / 0x30323449), yuv420p, 480x240, 41472 kb/s, 30 tbr, 30 tbn, 30 tbc
Stream mapping:
  Stream #0:0 -> #0:0 (rawvideo (native) -> h264 (libx264))
Press [q] to stop, [?] for help
[libx264 @ 0x55955faf2c60] using cpu capabilities: MMX2 SSE2Fast LZCNT SSSE3 SSE4.2 AVX
[libx264 @ 0x55955faf2c60] profile High, level 2.1
Output #0, rawvideo, to 'RollerCoaster_Tile_41_480x240_x264_QP_40.h264':
  Metadata:
    encoder         : Lavf57.83.100
    Stream #0:0: Video: h264 (libx264), yuv420p, 480x240, q=-1--1, 30 fps, 30 tbn, 30 tbc
    Metadata:
      encoder         : Lavc57.107.100 libx264
    Side data:
      cpb: bitrate max/min/avg: 0/0/0 buffer size: 0 vbv_delay: -1
frame=  216 fps=0.0 q=46.0 PSNR=Y:nan U:nan V:nan *:nan size=      26kB time=00:00:05.76 bitrate=  36.6kbits/s speed=11.5x    frame=  300 fps=0.0 q=46.0 LPSNR=Y:inf U:inf V:inf *:inf size=      44kB time=00:00:09.93 bitrate=  36.2kbits/s speed=13.6x    
video:44kB audio:0kB subtitle:0kB other streams:0kB global headers:0kB muxing overhead: 0.000000%
[libx264 @ 0x55955faf2c60] frame I:2     Avg QP:38.40  size:  3052  PSNR Mean Y:32.45 U:40.99 V:41.32 Avg:33.93 Global:33.93
[libx264 @ 0x55955faf2c60] frame P:77    Avg QP:40.02  size:   369  PSNR Mean Y:30.74 U:40.80 V:40.68 Avg:32.29 Global:32.26
[libx264 @ 0x55955faf2c60] frame B:221   Avg QP:45.50  size:    47  PSNR Mean Y:30.57 U:40.78 V:40.67 Avg:32.13 Global:32.10
[libx264 @ 0x55955faf2c60] consecutive B-frames:  1.0%  2.0%  1.0% 96.0%
[libx264 @ 0x55955faf2c60] mb I  I16..4: 42.4% 54.6%  3.0%
[libx264 @ 0x55955faf2c60] mb P  I16..4:  0.7%  0.5%  0.0%  P16..4: 30.6%  1.9%  0.3%  0.0%  0.0%    skip:66.0%
[libx264 @ 0x55955faf2c60] mb B  I16..4:  0.0%  0.0%  0.0%  B16..8:  6.5%  0.0%  0.0%  direct: 0.0%  skip:93.5%  L0:31.2% L1:68.8% BI: 0.0%
[libx264 @ 0x55955faf2c60] 8x8 transform intra:50.6% inter:87.2%
[libx264 @ 0x55955faf2c60] coded y,uvDC,uvAC intra: 29.9% 46.9% 4.0% inter: 1.1% 1.2% 0.0%
[libx264 @ 0x55955faf2c60] i16 v,h,dc,p: 27% 30% 24% 19%
[libx264 @ 0x55955faf2c60] i8 v,h,dc,ddl,ddr,vr,hd,vl,hu:  4% 12% 45% 13%  5%  4%  6%  6%  5%
[libx264 @ 0x55955faf2c60] i4 v,h,dc,ddl,ddr,vr,hd,vl,hu: 13% 22% 25% 15%  5%  4%  5%  7%  3%
[libx264 @ 0x55955faf2c60] i8c dc,h,v,p: 66% 21%  7%  7%
[libx264 @ 0x55955faf2c60] Weighted P-Frames: Y:0.0% UV:0.0%
[libx264 @ 0x55955faf2c60] ref P L0: 66.2% 12.1% 16.7%  5.1%
[libx264 @ 0x55955faf2c60] ref B L0: 91.9%  7.4%  0.7%
[libx264 @ 0x55955faf2c60] ref B L1: 91.1%  8.9%
[libx264 @ 0x55955faf2c60] PSNR Mean Y:30.629 U:40.785 V:40.677 Avg:32.182 Global:32.152 kb/s:35.94
